<?xml version="1.0" standalone="no"?><!DOCTYPE svg PUBLIC "-//W3C//DTD SVG 1.1//EN" "http://www.w3.org/Graphics/SVG/1.1/DTD/svg11.dtd"><svg height="1024" node-id="1" sillyvg="true" template-height="1024" template-width="1024" version="1.1" viewBox="0 0 1024 1024" width="1024" xmlns="http://www.w3.org/2000/svg" xmlns:xlink="http://www.w3.org/1999/xlink"><defs node-id="101"><linearGradient gradientUnits="objectBoundingBox" id="linear-gradient" node-id="3" spreadMethod="pad" x1="0.335" x2="0.715" y1="0" y2="0.937"><stop offset="0" stop-color="#c7cfe4"></stop><stop offset="1" stop-color="#f3f8ff" stop-opacity="0.569"></stop></linearGradient><linearGradient gradientUnits="objectBoundingBox" id="linear-gradient-2" node-id="6" spreadMethod="pad" x1="0.5" x2="0.5" y1="0" y2="1"><stop offset="0" stop-color="#c1d0f1"></stop><stop offset="1" stop-color="#ecf1ff"></stop></linearGradient><linearGradient gradientUnits="objectBoundingBox" id="linear-gradient-3" node-id="9" spreadMethod="pad" x1="0.5" x2="0.5" y1="0" y2="1"><stop offset="0" stop-color="#c4d3f4"></stop><stop offset="1" stop-color="#ecf0fe"></stop></linearGradient><linearGradient gradientUnits="objectBoundingBox" id="linear-gradient-4" node-id="18" spreadMethod="pad" x1="0.5" x2="0.5" y1="0" y2="1"><stop offset="0" stop-color="#e7ecfa"></stop><stop offset="1" stop-color="#f0f2fa"></stop></linearGradient><linearGradient gradientUnits="objectBoundingBox" id="linear-gradient-5" node-id="28" spreadMethod="pad" x1="0.5" x2="0.5" y1="0" y2="1"><stop offset="0" stop-color="#d1ecea"></stop><stop offset="1" stop-color="#eff3fb"></stop></linearGradient><filter height="528" id="矩形_2392" node-id="12" width="320" x="466.466" y="177.825"><feOffset color-interpolation-filters="linearRGB" dx="0" dy="0" in="SourceGraphic" result="result1"></feOffset><feGaussianBlur color-interpolation-filters="linearRGB" in="result1" result="blur" stdDeviation="20 20"></feGaussianBlur><feFlood color-interpolation-filters="linearRGB" flood-color="#0467e9" flood-opacity="0.161" result="result3"></feFlood><feComposite color-interpolation-filters="linearRGB" in="result3" in2="blur" operator="in" result="result4"></feComposite><feComposite color-interpolation-filters="linearRGB" in="SourceGraphic" in2="result4" operator="over" result="result5"></feComposite></filter><filter height="493" id="矩形_2393" node-id="21" width="384" x="250.466" y="209.825"><feOffset color-interpolation-filters="linearRGB" dx="0" dy="0" in="SourceGraphic" result="result1"></feOffset><feGaussianBlur color-interpolation-filters="linearRGB" in="result1" result="blur-2" stdDeviation="6 6"></feGaussianBlur><feFlood color-interpolation-filters="linearRGB" flood-color="#ffffff" result="color"></feFlood><feComposite color-interpolation-filters="linearRGB" in="SourceGraphic" in2="blur-2" operator="out" result="result4"></feComposite><feComposite color-interpolation-filters="linearRGB" in="color" in2="result4" operator="in" result="result5"></feComposite><feComposite color-interpolation-filters="linearRGB" in="result5" in2="SourceGraphic" operator="in" result="result6"></feComposite></filter><clipPath id="clip-文件" node-id="33"><path d="M 0.00 0.00 L 1024.00 0.00 L 1024.00 1024.00 L 0.00 1024.00 Z" fill="#000000" fill-rule="nonzero" node-id="160" stroke="none" target-height="1024" target-width="1024" target-x="0" target-y="0"></path></clipPath><clipPath id="clip-path" node-id="31"><path d="M 794.80 680.00 L 797.30 679.70 L 803.00 677.70 L 811.50 672.70 L 819.70 666.50 L 825.60 661.20 L 829.20 657.20 L 829.80 656.20 L 830.10 654.60 L 829.60 650.00 L 828.60 646.60 L 826.60 641.70 L 823.50 635.80 L 816.20 623.80 L 813.20 618.00 L 807.60 605.40 L 802.80 592.30 L 799.10 580.40 L 797.00 571.10 L 796.10 563.20 L 794.90 541.10 L 794.20 519.80 L 801.60 519.40 L 811.00 518.30 L 818.80 516.30 L 825.40 513.20 L 829.80 509.60 L 831.40 507.40 L 832.70 504.90 L 833.40 501.90 L 833.60 498.30 L 833.40 493.80 L 832.50 488.20 L 830.90 481.40 L 827.40 470.20 L 823.50 459.20 L 821.50 454.40 L 814.30 441.30 L 804.00 425.60 L 799.40 419.60 L 796.60 416.60 L 790.20 414.80 L 780.40 412.90 L 777.00 412.60 L 775.50 414.80 L 773.80 418.10 L 772.10 423.00 L 770.20 429.90 L 768.40 438.60 L 765.70 456.00 L 764.20 468.80 L 762.50 490.30 L 755.10 488.00 L 750.70 501.90 L 758.70 506.30 L 757.10 531.20 L 755.80 561.70 L 755.60 584.20 L 756.40 593.60 L 758.40 601.40 L 762.00 612.90 L 766.60 626.50 L 775.30 649.60 L 779.10 658.30 L 783.10 667.00 L 788.40 675.80 L 791.60 679.20 L 792.80 679.70 L 794.80 680.00 Z M 795.50 451.80 L 799.80 457.90 L 803.70 464.30 L 806.50 469.70 L 808.90 475.30 L 810.00 479.50 L 810.40 482.80 L 810.20 485.40 L 809.40 488.60 L 808.50 491.10 L 806.10 494.40 L 803.00 496.40 L 800.20 497.10 L 793.50 497.10 L 795.50 451.80 Z" fill="#000000" fill-rule="nonzero" id="减去_26" node-id="32" stroke="none" target-height="267.4" target-width="82.89996" target-x="750.7" target-y="412.6"></path></clipPath></defs><g clip-path="url(#clip-文件)" id="文件" node-id="35"><path d="M 0.00 0.00 L 1024.00 0.00 L 1024.00 1024.00 L 0.00 1024.00 Z" fill="#ffffff" fill-rule="nonzero" node-id="168" stroke="none" target-height="1024" target-width="1024" target-x="0" target-y="0"></path><path d="M 912.00 814.50 L 911.70 817.10 L 910.90 819.70 L 909.50 822.30 L 907.50 824.90 L 904.70 827.60 L 901.10 830.40 L 896.60 833.30 L 891.10 836.10 L 884.50 839.00 L 870.80 843.70 L 853.70 848.00 L 841.80 850.30 L 828.80 852.30 L 814.50 853.90 L 800.30 855.00 L 785.30 855.70 L 769.50 856.00 L 753.70 855.70 L 738.70 855.00 L 724.50 853.90 L 710.20 852.30 L 697.20 850.30 L 685.30 848.00 L 668.20 843.70 L 654.50 839.00 L 647.90 836.10 L 642.40 833.30 L 637.90 830.40 L 634.30 827.60 L 631.50 824.90 L 629.50 822.30 L 628.10 819.70 L 627.30 817.10 L 627.00 814.50 L 627.30 811.90 L 628.10 809.30 L 629.50 806.70 L 631.50 804.10 L 634.30 801.40 L 637.90 798.60 L 642.40 795.70 L 647.90 792.90 L 654.50 790.00 L 668.20 785.30 L 685.30 781.00 L 697.20 778.70 L 710.20 776.70 L 724.50 775.10 L 738.70 774.00 L 753.70 773.30 L 769.50 773.00 L 785.30 773.30 L 800.30 774.00 L 814.50 775.10 L 828.80 776.70 L 841.80 778.70 L 853.70 781.00 L 870.80 785.30 L 884.50 790.00 L 891.10 792.90 L 896.60 795.70 L 901.10 798.60 L 904.70 801.40 L 907.50 804.10 L 909.50 806.70 L 910.90 809.30 L 911.70 811.90 L 912.00 814.50 Z" fill="#e1ebfa" fill-rule="nonzero" group-id="1" id="椭圆_798" node-id="37" stroke="none" target-height="83" target-width="285" target-x="627" target-y="773"></path><path d="M 770.00 268.80 L 780.00 269.10 L 789.90 269.80 L 799.90 271.00 L 796.80 289.20 L 790.30 333.50 L 770.00 478.50 L 924.40 431.80 L 966.50 419.40 L 968.60 428.10 L 971.70 445.60 L 973.30 463.40 L 973.50 472.30 L 973.20 482.00 L 972.60 491.50 L 971.50 500.80 L 970.00 510.00 L 968.10 519.00 L 965.80 528.00 L 963.10 536.70 L 960.00 545.30 L 956.60 553.60 L 952.80 561.80 L 947.50 571.80 L 941.80 581.40 L 935.50 590.70 L 928.80 599.60 L 921.50 608.10 L 913.90 616.20 L 905.80 623.90 L 897.20 631.10 L 888.30 637.90 L 879.10 644.10 L 869.50 649.90 L 859.50 655.10 L 851.30 658.90 L 842.90 662.40 L 834.40 665.40 L 825.60 668.10 L 816.60 670.50 L 807.60 672.40 L 798.50 673.90 L 789.10 674.90 L 779.60 675.60 L 770.00 675.80 L 760.30 675.60 L 750.80 674.90 L 741.50 673.90 L 732.30 672.40 L 723.30 670.50 L 714.30 668.10 L 705.60 665.40 L 697.00 662.40 L 688.70 658.90 L 680.50 655.10 L 670.50 649.90 L 660.90 644.10 L 651.60 637.90 L 642.70 631.10 L 634.20 623.90 L 626.10 616.20 L 618.40 608.10 L 611.20 599.60 L 604.40 590.70 L 598.20 581.40 L 592.40 571.80 L 587.10 561.80 L 583.40 553.60 L 579.90 545.30 L 576.90 536.70 L 574.20 528.00 L 571.80 519.00 L 569.90 510.00 L 568.40 500.80 L 567.40 491.50 L 566.70 482.00 L 566.50 472.30 L 566.70 462.60 L 567.40 453.20 L 568.40 443.80 L 569.90 434.70 L 571.80 425.70 L 574.20 416.70 L 576.90 407.90 L 579.90 399.40 L 583.40 391.00 L 587.10 382.80 L 592.40 372.80 L 598.20 363.20 L 604.40 354.00 L 611.20 345.00 L 618.40 336.50 L 626.10 328.40 L 634.20 320.80 L 642.70 313.50 L 651.60 306.80 L 660.90 300.50 L 670.50 294.80 L 680.50 289.50 L 688.70 285.70 L 697.00 282.30 L 705.60 279.20 L 714.30 276.50 L 723.30 274.20 L 732.30 272.30 L 741.50 270.80 L 750.80 269.70 L 760.30 269.10 L 770.00 268.80 Z" fill="url(#linear-gradient)" fill-rule="nonzero" group-id="2,8,30" id="路径_1157" node-id="40" stroke="none" target-height="407" target-width="407" target-x="566.5" target-y="268.8"></path><path d="M 823.70 250.10 L 833.00 251.80 L 842.10 253.80 L 851.00 256.20 L 859.80 259.00 L 868.40 262.20 L 878.90 266.80 L 889.00 271.80 L 898.90 277.50 L 908.30 283.60 L 917.50 290.30 L 926.20 297.50 L 934.50 305.10 L 942.40 313.10 L 949.80 321.70 L 956.70 330.50 L 963.20 339.80 L 969.20 349.50 L 973.60 357.50 L 977.60 365.70 L 981.30 374.10 L 984.60 382.70 L 987.50 391.50 L 970.40 397.60 L 927.50 411.90 L 786.40 458.20 L 811.20 313.00 L 819.40 268.60 L 822.20 255.20 L 823.70 250.10 Z" fill="#cdd4e5" fill-rule="nonzero" group-id="2,8,31" id="路径_1158" node-id="41" stroke="none" target-height="208.1" target-width="201.09998" target-x="786.4" target-y="250.1"></path><path d="M 546.50 314.80 L 807.50 314.80 L 811.10 315.20 L 814.50 316.10 L 817.60 317.60 L 820.40 319.50 L 822.70 321.90 L 824.70 324.70 L 826.20 327.80 L 827.10 331.20 L 827.50 334.80 L 827.50 591.80 L 827.10 595.50 L 826.20 598.80 L 824.70 601.90 L 822.70 604.70 L 820.40 607.10 L 817.60 609.10 L 814.50 610.60 L 811.10 611.50 L 807.50 611.80 L 546.50 611.80 L 542.80 611.50 L 539.50 610.60 L 536.40 609.10 L 533.60 607.10 L 531.20 604.70 L 529.20 601.90 L 527.70 598.80 L 526.80 595.50 L 526.50 591.80 L 526.50 334.80 L 526.80 331.20 L 527.70 327.80 L 529.20 324.70 L 531.20 321.90 L 533.60 319.50 L 536.40 317.60 L 539.50 316.10 L 542.80 315.20 L 546.50 314.80 Z" fill="url(#linear-gradient-2)" fill-opacity="0.94" fill-rule="nonzero" group-id="2,9" node-id="186" stroke="none" target-height="297" target-width="301" target-x="526.5" target-y="314.8"></path><path d="M 546.50 315.80 L 807.50 315.80 L 810.90 316.10 L 814.10 317.00 L 817.10 318.40 L 819.70 320.30 L 822.00 322.60 L 823.90 325.20 L 825.30 328.20 L 826.10 331.40 L 826.50 334.80 L 826.50 591.80 L 826.10 595.30 L 825.30 598.50 L 823.90 601.40 L 822.00 604.10 L 819.70 606.30 L 817.10 608.20 L 814.10 609.60 L 810.90 610.50 L 807.50 610.80 L 546.50 610.80 L 543.00 610.50 L 539.80 609.60 L 536.90 608.20 L 534.20 606.30 L 531.90 604.10 L 530.10 601.40 L 528.70 598.50 L 527.80 595.30 L 527.50 591.80 L 527.50 334.80 L 527.80 331.40 L 528.70 328.20 L 530.10 325.20 L 531.90 322.60 L 534.20 320.30 L 536.90 318.40 L 539.80 317.00 L 543.00 316.10 L 546.50 315.80 Z" fill="none" group-id="2,9" node-id="188" stroke="#ffffff" stroke-linecap="butt" stroke-opacity="0.94" stroke-width="2" target-height="295" target-width="299" target-x="527.5" target-y="315.8"></path><path d="M 546.50 237.80 L 706.50 237.80 L 710.10 238.20 L 713.50 239.10 L 716.60 240.60 L 719.40 242.50 L 721.80 244.90 L 723.70 247.70 L 725.20 250.80 L 726.10 254.20 L 726.50 257.80 L 726.50 625.80 L 726.10 629.50 L 725.20 632.80 L 723.70 635.90 L 721.80 638.70 L 719.40 641.10 L 716.60 643.10 L 713.50 644.60 L 710.10 645.50 L 706.50 645.80 L 546.50 645.80 L 542.80 645.50 L 539.50 644.60 L 536.40 643.10 L 533.60 641.10 L 531.20 638.70 L 529.20 635.90 L 527.70 632.80 L 526.80 629.50 L 526.50 625.80 L 526.50 257.80 L 526.80 254.20 L 527.70 250.80 L 529.20 247.70 L 531.20 244.90 L 533.60 242.50 L 536.40 240.60 L 539.50 239.10 L 542.80 238.20 L 546.50 237.80 Z" fill="url(#linear-gradient-3)" fill-opacity="0.94" fill-rule="nonzero" filter="url(#矩形_2392)" group-id="2,10,32" node-id="194" stroke="none" target-height="408" target-width="200" target-x="526.5" target-y="237.8"></path><path d="M 546.50 238.80 L 706.50 238.80 L 709.90 239.10 L 713.10 240.00 L 716.10 241.40 L 718.70 243.30 L 721.00 245.60 L 722.90 248.20 L 724.30 251.20 L 725.10 254.40 L 725.50 257.80 L 725.50 625.80 L 725.10 629.30 L 724.30 632.50 L 722.90 635.40 L 721.00 638.10 L 718.70 640.30 L 716.10 642.20 L 713.10 643.60 L 709.90 644.50 L 706.50 644.80 L 546.50 644.80 L 543.00 644.50 L 539.80 643.60 L 536.90 642.20 L 534.20 640.30 L 532.00 638.10 L 530.10 635.40 L 528.70 632.50 L 527.80 629.30 L 527.50 625.80 L 527.50 257.80 L 527.80 254.40 L 528.70 251.20 L 530.10 248.20 L 532.00 245.60 L 534.20 243.30 L 536.90 241.40 L 539.80 240.00 L 543.00 239.10 L 546.50 238.80 Z" fill="none" filter="url(#矩形_2392)" group-id="2,10,32" node-id="196" stroke="#ffffff" stroke-linecap="butt" stroke-opacity="0.94" stroke-width="2" target-height="406" target-width="198" target-x="527.5" target-y="238.8"></path><path d="M 265.50 209.80 L 619.50 209.80 L 622.20 210.10 L 624.70 210.80 L 627.00 211.90 L 629.10 213.40 L 630.90 215.10 L 632.40 217.30 L 633.50 219.60 L 634.20 222.10 L 634.50 224.80 L 634.50 687.80 L 634.20 690.60 L 633.50 693.10 L 632.40 695.40 L 630.90 697.50 L 629.10 699.30 L 627.00 700.80 L 624.70 701.90 L 622.20 702.60 L 619.50 702.80 L 265.50 702.80 L 262.70 702.60 L 260.20 701.90 L 257.90 700.80 L 255.80 699.30 L 254.00 697.50 L 252.50 695.40 L 251.40 693.10 L 250.70 690.60 L 250.50 687.80 L 250.50 224.80 L 250.70 222.10 L 251.40 219.60 L 252.50 217.30 L 254.00 215.10 L 255.80 213.40 L 257.90 211.90 L 260.20 210.80 L 262.70 210.10 L 265.50 209.80 Z" fill="url(#linear-gradient-4)" fill-rule="nonzero" group-id="2,11,33" id="矩形_2393-2" node-id="50" stroke="none" target-height="493" target-width="384" target-x="250.5" target-y="209.8"></path><path d="M 265.50 209.80 L 619.50 209.80 L 622.20 210.10 L 624.70 210.80 L 627.00 211.90 L 629.10 213.40 L 630.90 215.10 L 632.40 217.30 L 633.50 219.60 L 634.20 222.10 L 634.50 224.80 L 634.50 687.80 L 634.20 690.60 L 633.50 693.10 L 632.40 695.40 L 630.90 697.50 L 629.10 699.30 L 627.00 700.80 L 624.70 701.90 L 622.20 702.60 L 619.50 702.80 L 265.50 702.80 L 262.70 702.60 L 260.20 701.90 L 257.90 700.80 L 255.80 699.30 L 254.00 697.50 L 252.50 695.40 L 251.40 693.10 L 250.70 690.60 L 250.50 687.80 L 250.50 224.80 L 250.70 222.10 L 251.40 219.60 L 252.50 217.30 L 254.00 215.10 L 255.80 213.40 L 257.90 211.90 L 260.20 210.80 L 262.70 210.10 L 265.50 209.80 Z" fill="#ffffff" fill-rule="nonzero" filter="url(#矩形_2393)" group-id="2,11,34,51" id="矩形_2393-3" node-id="52" stroke="none" target-height="493" target-width="384" target-x="250.5" target-y="209.8"></path><path d="M 265.50 209.80 L 619.50 209.80 L 622.20 210.10 L 624.70 210.80 L 627.00 211.90 L 629.10 213.40 L 630.90 215.10 L 632.40 217.30 L 633.50 219.60 L 634.20 222.10 L 634.50 224.80 L 634.50 687.80 L 634.20 690.60 L 633.50 693.10 L 632.40 695.40 L 630.90 697.50 L 629.10 699.30 L 627.00 700.80 L 624.70 701.90 L 622.20 702.60 L 619.50 702.80 L 265.50 702.80 L 262.70 702.60 L 260.20 701.90 L 257.90 700.80 L 255.80 699.30 L 254.00 697.50 L 252.50 695.40 L 251.40 693.10 L 250.70 690.60 L 250.50 687.80 L 250.50 224.80 L 250.70 222.10 L 251.40 219.60 L 252.50 217.30 L 254.00 215.10 L 255.80 213.40 L 257.90 211.90 L 260.20 210.80 L 262.70 210.10 L 265.50 209.80 Z" fill="none" group-id="2,11,35" node-id="214" stroke="none" target-height="493" target-width="384" target-x="250.5" target-y="209.8"></path><path d="M 265.50 210.80 L 619.50 210.80 L 622.00 211.10 L 624.40 211.70 L 626.50 212.70 L 628.50 214.10 L 630.20 215.80 L 631.60 217.80 L 632.60 219.90 L 633.20 222.30 L 633.50 224.80 L 633.50 687.80 L 633.20 690.40 L 632.60 692.70 L 631.60 694.90 L 630.20 696.90 L 626.50 699.90 L 624.40 700.90 L 622.00 701.60 L 619.50 701.80 L 265.50 701.80 L 262.90 701.60 L 260.60 700.90 L 258.40 699.90 L 256.40 698.50 L 254.80 696.90 L 253.40 694.90 L 252.30 692.70 L 251.70 690.40 L 251.50 687.80 L 251.50 224.80 L 251.70 222.30 L 252.30 219.90 L 253.40 217.80 L 254.80 215.80 L 256.40 214.10 L 258.40 212.70 L 260.60 211.70 L 262.90 211.10 L 265.50 210.80 Z" fill="none" group-id="2,11,35" node-id="216" stroke="#ffffff" stroke-linecap="butt" stroke-width="2" target-height="491" target-width="382" target-x="251.5" target-y="210.8"></path><path d="M 307.50 254.80 L 572.50 254.80 L 573.90 255.40 L 574.50 256.80 L 574.50 267.80 L 574.30 268.60 L 573.30 269.70 L 307.50 269.80 L 306.10 269.20 L 305.50 267.80 L 305.50 256.80 L 306.10 255.40 L 307.50 254.80 Z" fill="#81a9fd" fill-rule="nonzero" group-id="2,12" id="矩形_2394" node-id="56" stroke="none" target-height="14.999985" target-width="269" target-x="305.5" target-y="254.8"></path><path d="M 307.50 283.80 L 446.50 283.80 L 447.90 284.40 L 448.50 285.80 L 448.50 296.80 L 447.90 298.20 L 446.50 298.80 L 307.50 298.80 L 306.10 298.20 L 305.50 296.80 L 305.50 285.80 L 306.10 284.40 L 307.50 283.80 Z" fill="#81a9fd" fill-rule="nonzero" group-id="2,13" id="矩形_2395" node-id="57" stroke="none" target-height="15" target-width="143" target-x="305.5" target-y="283.8"></path><path d="M 345.00 353.80 L 536.00 353.80 L 538.00 354.10 L 539.80 354.80 L 541.30 356.00 L 542.40 357.50 L 543.20 359.30 L 543.50 361.30 L 543.20 363.30 L 542.40 365.10 L 541.30 366.60 L 539.80 367.80 L 538.00 368.60 L 536.00 368.80 L 345.00 368.80 L 343.00 368.60 L 341.20 367.80 L 339.70 366.60 L 338.50 365.10 L 337.70 363.30 L 337.50 361.30 L 337.70 359.30 L 338.50 357.50 L 339.70 356.00 L 341.20 354.80 L 343.00 354.10 L 345.00 353.80 Z" fill="#ffffff" fill-rule="nonzero" group-id="2,14" id="矩形_2396" node-id="58" stroke="none" target-height="15" target-width="206" target-x="337.5" target-y="353.8"></path><path d="M 345.00 391.80 L 536.00 391.80 L 538.00 392.10 L 539.80 392.80 L 541.30 394.00 L 542.40 395.50 L 543.20 397.30 L 543.50 399.30 L 543.20 401.30 L 542.40 403.10 L 541.30 404.60 L 539.80 405.80 L 538.00 406.60 L 536.00 406.80 L 345.00 406.80 L 343.00 406.60 L 341.20 405.80 L 339.70 404.60 L 338.50 403.10 L 337.70 401.30 L 337.50 399.30 L 337.70 397.30 L 338.50 395.50 L 339.70 394.00 L 341.20 392.80 L 343.00 392.10 L 345.00 391.80 Z" fill="#ffffff" fill-rule="nonzero" group-id="2,15" id="矩形_2397" node-id="59" stroke="none" target-height="15" target-width="206" target-x="337.5" target-y="391.8"></path><path d="M 345.00 429.80 L 536.00 429.80 L 538.00 430.10 L 539.80 430.80 L 541.30 432.00 L 542.40 433.50 L 543.20 435.30 L 543.50 437.30 L 543.20 439.30 L 542.40 441.10 L 541.30 442.60 L 539.80 443.80 L 538.00 444.60 L 536.00 444.80 L 345.00 444.80 L 343.00 444.60 L 341.20 443.80 L 339.70 442.60 L 338.50 441.10 L 337.70 439.30 L 337.50 437.30 L 337.70 435.30 L 338.50 433.50 L 339.70 432.00 L 341.20 430.80 L 343.00 430.10 L 345.00 429.80 Z" fill="#ffffff" fill-rule="nonzero" group-id="2,16" id="矩形_2398" node-id="60" stroke="none" target-height="15" target-width="206" target-x="337.5" target-y="429.8"></path><path d="M 589.30 459.00 L 548.00 459.00 L 545.90 458.70 L 544.00 457.90 L 542.40 456.70 L 541.10 455.00 L 540.30 453.10 L 540.00 451.00 L 540.00 408.70 L 540.30 406.50 L 541.10 404.60 L 542.40 403.00 L 544.00 401.70 L 545.90 400.90 L 548.00 400.70 L 651.20 400.70 L 653.30 400.90 L 655.20 401.70 L 656.80 403.00 L 658.10 404.60 L 658.90 406.50 L 659.20 408.70 L 659.20 451.00 L 658.90 453.10 L 658.10 455.00 L 656.80 456.70 L 655.20 457.90 L 653.30 458.70 L 651.20 459.00 L 604.00 459.00 L 597.30 475.10 Z" fill="#3bcc87" fill-rule="nonzero" group-id="2,17" id="联合_1" node-id="61" stroke="none" target-height="74.399994" target-width="119.20001" target-x="540" target-y="400.7"></path><path d="M 322.50 360.80 L 322.10 363.20 L 321.20 365.40 L 319.80 367.20 L 318.00 368.60 L 315.90 369.50 L 313.50 369.80 L 311.10 369.50 L 308.90 368.60 L 307.10 367.20 L 305.70 365.40 L 304.80 363.20 L 304.50 360.80 L 304.80 358.40 L 305.70 356.30 L 307.10 354.50 L 308.90 353.10 L 311.10 352.20 L 313.50 351.80 L 315.90 352.20 L 318.00 353.10 L 319.80 354.50 L 321.20 356.30 L 322.10 358.40 L 322.50 360.80 Z" fill="#59d29a" fill-rule="nonzero" group-id="2,18" id="椭圆_695" node-id="62" stroke="none" target-height="18" target-width="18" target-x="304.5" target-y="351.8"></path><path d="M 322.50 398.80 L 322.10 401.20 L 321.20 403.40 L 319.80 405.20 L 318.00 406.60 L 315.90 407.50 L 313.50 407.80 L 311.10 407.50 L 308.90 406.60 L 307.10 405.20 L 305.70 403.40 L 304.80 401.20 L 304.50 398.80 L 304.80 396.40 L 305.70 394.30 L 307.10 392.50 L 308.90 391.10 L 311.10 390.20 L 313.50 389.80 L 315.90 390.20 L 318.00 391.10 L 319.80 392.50 L 321.20 394.30 L 322.10 396.40 L 322.50 398.80 Z" fill="#59d29a" fill-rule="nonzero" group-id="2,19" id="椭圆_696" node-id="63" stroke="none" target-height="18" target-width="18" target-x="304.5" target-y="389.8"></path><path d="M 322.50 436.80 L 322.10 439.20 L 321.20 441.40 L 319.80 443.20 L 318.00 444.60 L 315.90 445.50 L 313.50 445.80 L 311.10 445.50 L 308.90 444.60 L 307.10 443.20 L 305.70 441.40 L 304.80 439.20 L 304.50 436.80 L 304.80 434.40 L 305.70 432.30 L 307.10 430.50 L 308.90 429.10 L 311.10 428.20 L 313.50 427.80 L 315.90 428.20 L 318.00 429.10 L 319.80 430.50 L 321.20 432.30 L 322.10 434.40 L 322.50 436.80 Z" fill="#59d29a" fill-rule="nonzero" group-id="2,20" id="椭圆_697" node-id="64" stroke="none" target-height="18" target-width="18" target-x="304.5" target-y="427.8"></path><path d="M 283.40 602.30 L 292.10 603.40 L 306.50 604.20 L 315.80 604.20 L 325.50 603.80 L 336.50 602.70 L 343.80 601.60 L 359.30 598.20 L 365.60 596.10 L 371.40 593.70 L 376.60 590.80 L 381.60 587.60 L 386.20 584.10 L 390.50 580.40 L 396.50 574.30 L 418.00 549.10 L 427.30 539.70 L 435.60 533.40 L 440.60 530.60 L 446.00 528.00 L 451.70 525.70 L 457.80 523.80 L 466.00 521.90 L 474.70 520.40 L 483.80 519.50 L 492.90 519.00 L 502.20 519.00 L 521.10 520.20 L 544.20 523.40 L 548.60 523.50 L 556.60 522.70 L 561.80 521.40 L 566.50 519.70 L 570.90 517.50 L 579.00 512.30 L 587.20 505.00 L 590.90 501.00 L 594.10 497.00 L 597.90 491.40 L 597.90 653.90 L 283.40 653.90 Z" fill="url(#linear-gradient-5)" fill-rule="nonzero" group-id="2,21" id="路径_1159" node-id="65" stroke="none" target-height="162.50003" target-width="314.50003" target-x="283.4" target-y="491.4"></path><path d="M 283.40 602.30 L 292.10 603.40 L 306.50 604.20 L 315.80 604.20 L 325.50 603.80 L 336.50 602.70 L 343.80 601.60 L 359.30 598.20 L 365.60 596.10 L 371.40 593.70 L 376.60 590.80 L 381.60 587.60 L 386.20 584.10 L 390.50 580.40 L 396.50 574.30 L 418.00 549.10 L 427.30 539.70 L 435.60 533.40 L 440.60 530.60 L 446.00 528.00 L 451.70 525.70 L 457.80 523.80 L 466.00 521.90 L 474.70 520.40 L 483.80 519.50 L 492.90 519.00 L 502.20 519.00 L 521.10 520.20 L 544.20 523.40 L 548.60 523.50 L 556.60 522.70 L 561.80 521.40 L 566.50 519.70 L 570.90 517.50 L 579.00 512.30 L 587.20 505.00 L 590.90 501.00 L 594.10 497.00 L 597.90 491.40" fill="none" group-id="2,22" id="路径_1160" node-id="66" stroke="#34cb82" stroke-linecap="round" stroke-width="3" target-height="112.80002" target-width="314.50003" target-x="283.4" target-y="491.4"></path><path d="M 607.50 487.80 L 606.80 491.30 L 605.10 494.30 L 602.50 496.50 L 601.00 497.20 L 597.50 497.80 L 594.00 497.20 L 591.00 495.50 L 588.80 492.90 L 588.10 491.30 L 587.50 487.80 L 588.10 484.30 L 589.80 481.40 L 592.40 479.20 L 594.00 478.50 L 597.50 477.80 L 601.00 478.50 L 602.50 479.20 L 605.10 481.40 L 606.80 484.30 L 607.50 487.80 Z" fill="#3bcc87" fill-rule="nonzero" group-id="2,23" node-id="265" stroke="none" target-height="20" target-width="20" target-x="587.5" target-y="477.8"></path><path d="M 605.50 487.80 L 605.20 490.00 L 604.40 491.90 L 603.10 493.50 L 601.50 494.70 L 599.60 495.50 L 597.50 495.80 L 595.30 495.50 L 593.40 494.70 L 591.80 493.50 L 590.60 491.90 L 589.80 490.00 L 589.50 487.80 L 589.80 485.70 L 590.60 483.80 L 591.80 482.20 L 593.40 480.90 L 595.30 480.10 L 597.50 479.80 L 599.60 480.10 L 601.50 480.90 L 603.10 482.20 L 604.40 483.80 L 605.20 485.70 L 605.50 487.80 Z" fill="none" group-id="2,23" node-id="267" stroke="#ffffff" stroke-linecap="butt" stroke-width="4" target-height="16" target-width="16" target-x="589.5" target-y="479.8"></path><path d="M 46.50 447.80 L 312.50 447.80 L 314.30 448.00 L 317.50 449.20 L 320.10 451.40 L 321.10 452.80 L 322.30 456.00 L 322.50 457.80 L 322.50 616.80 L 321.80 620.30 L 320.10 623.30 L 317.50 625.50 L 314.30 626.70 L 46.50 626.80 L 44.60 626.70 L 41.40 625.50 L 40.00 624.50 L 37.80 621.90 L 36.60 618.70 L 36.50 616.80 L 36.50 457.80 L 37.10 454.30 L 38.80 451.40 L 41.40 449.20 L 43.00 448.50 L 46.50 447.80 Z" fill="#baccff" fill-opacity="0" fill-rule="nonzero" group-id="2,24" node-id="271" stroke="none" target-height="179" target-width="286" target-x="36.5" target-y="447.8"></path><path d="M 46.50 448.80 L 312.50 448.80 L 314.90 449.20 L 317.00 450.10 L 318.80 451.50 L 320.20 453.30 L 321.10 455.40 L 321.50 457.80 L 321.50 616.80 L 321.10 619.20 L 320.20 621.40 L 318.80 623.20 L 317.00 624.60 L 314.90 625.50 L 312.50 625.80 L 46.50 625.80 L 44.10 625.50 L 41.90 624.60 L 40.10 623.20 L 38.70 621.40 L 37.80 619.20 L 37.50 616.80 L 37.50 457.80 L 37.80 455.40 L 38.70 453.30 L 40.10 451.50 L 41.90 450.10 L 44.10 449.20 L 46.50 448.80 Z" fill="none" group-id="2,24" node-id="273" stroke="#ffffff" stroke-linecap="butt" stroke-width="2" target-height="177" target-width="284" target-x="37.5" target-y="448.8"></path><path d="M 66.50 488.80 L 106.50 488.80 L 107.90 489.40 L 108.50 490.80 L 108.50 514.80 L 107.90 516.20 L 106.50 516.80 L 66.50 516.80 L 65.10 516.20 L 64.50 514.80 L 64.50 490.80 L 65.10 489.40 L 66.50 488.80 Z" fill="#ffa91f" fill-rule="nonzero" group-id="2,25" id="矩形_2400" node-id="73" stroke="none" target-height="28" target-width="44" target-x="64.5" target-y="488.8"></path><path d="M 38.50 574.80 L 320.50 574.80 L 320.50 599.80 L 38.50 599.80 Z" fill="#467cfb" fill-rule="nonzero" group-id="2,26" id="矩形_2401" node-id="74" stroke="none" target-height="25" target-width="282" target-x="38.5" target-y="574.8"></path><path d="M 76.50 650.80 L 76.20 652.50 L 75.70 653.90 L 74.70 655.10 L 73.50 656.00 L 72.10 656.60 L 70.50 656.80 L 68.80 656.60 L 67.40 656.00 L 65.30 653.90 L 64.70 652.50 L 64.50 650.80 L 64.70 649.20 L 65.30 647.80 L 67.40 645.60 L 68.80 645.10 L 70.50 644.80 L 72.10 645.10 L 73.50 645.60 L 74.70 646.60 L 75.70 647.80 L 76.20 649.20 L 76.50 650.80 Z" fill="#ffffff" fill-rule="nonzero" group-id="3" id="椭圆_699" node-id="75" stroke="none" target-height="12" target-width="12" target-x="64.5" target-y="644.8"></path><path d="M 94.50 650.80 L 94.20 652.50 L 93.70 653.90 L 92.70 655.10 L 91.50 656.00 L 90.10 656.60 L 88.50 656.80 L 85.40 656.00 L 83.30 653.90 L 82.70 652.50 L 82.50 650.80 L 82.70 649.20 L 83.30 647.80 L 85.40 645.60 L 86.80 645.10 L 88.50 644.80 L 90.10 645.10 L 91.50 645.60 L 92.70 646.60 L 93.70 647.80 L 94.20 649.20 L 94.50 650.80 Z" fill="#ffffff" fill-rule="nonzero" group-id="4" id="椭圆_700" node-id="76" stroke="none" target-height="12" target-width="12" target-x="82.5" target-y="644.8"></path><path d="M 110.50 650.80 L 110.20 652.50 L 109.70 653.90 L 108.70 655.10 L 107.50 656.00 L 106.10 656.60 L 104.50 656.80 L 102.80 656.60 L 101.40 656.00 L 99.30 653.90 L 98.70 652.50 L 98.50 650.80 L 98.70 649.20 L 99.30 647.80 L 101.40 645.60 L 102.80 645.10 L 104.50 644.80 L 106.10 645.10 L 107.50 645.60 L 108.70 646.60 L 109.70 647.80 L 110.20 649.20 L 110.50 650.80 Z" fill="#ffffff" fill-rule="nonzero" group-id="5" id="椭圆_701" node-id="77" stroke="none" target-height="12" target-width="12" target-x="98.5" target-y="644.8"></path><path d="M 128.50 650.80 L 128.20 652.50 L 127.70 653.90 L 126.70 655.10 L 125.50 656.00 L 124.10 656.60 L 122.50 656.80 L 120.80 656.60 L 119.40 656.00 L 117.30 653.90 L 116.70 652.50 L 116.50 650.80 L 116.70 649.20 L 117.30 647.80 L 119.40 645.60 L 120.80 645.10 L 122.50 644.80 L 124.10 645.10 L 125.50 645.60 L 126.70 646.60 L 128.20 649.20 L 128.50 650.80 Z" fill="#ffffff" fill-rule="nonzero" group-id="6" id="椭圆_702" node-id="78" stroke="none" target-height="12" target-width="12" target-x="116.5" target-y="644.8"></path><path d="M 737.20 767.50 L 743.10 778.60 L 747.20 784.40 L 748.00 787.40 L 747.80 788.90 L 746.80 790.70 L 745.30 792.20 L 742.70 794.00 L 735.70 797.50 L 715.30 806.80 L 700.20 813.00 L 697.20 813.70 L 693.90 814.00 L 689.70 813.50 L 686.30 811.90 L 685.10 810.50 L 684.20 808.80 L 684.40 806.60 L 687.10 803.00 L 689.60 800.50 L 707.10 786.60 L 708.80 784.90 L 709.40 783.90 L 710.20 780.10 L 711.30 769.00 Z" fill="#fda804" fill-rule="nonzero" group-id="7,27,36" id="路径_1310" node-id="81" stroke="none" target-height="46.5" target-width="63.799988" target-x="684.2" target-y="767.5"></path><path d="M 721.80 554.60 L 708.00 623.00 L 701.40 659.90 L 699.40 673.40 L 698.00 687.90 L 697.10 705.10 L 695.90 740.60 L 695.50 769.10 L 705.60 771.40 L 710.30 772.20 L 721.40 773.00 L 731.00 772.30 L 738.20 770.40 L 741.50 768.80 L 744.40 766.90 L 747.00 764.50 L 746.40 749.80 L 745.90 716.80 L 746.50 664.40 L 748.80 600.80 L 751.30 554.60 Z" fill="#18225f" fill-rule="nonzero" group-id="7,27,37" id="路径_1309" node-id="82" stroke="none" target-height="218.40002" target-width="55.799988" target-x="695.5" target-y="554.6"></path><path d="M 858.20 738.40 L 872.90 740.90 L 874.00 741.30 L 876.30 743.10 L 877.30 744.50 L 878.10 746.40 L 878.30 749.60 L 877.30 754.20 L 871.20 768.70 L 855.90 801.70 L 853.20 808.20 L 850.40 811.40 L 846.70 813.70 L 843.70 814.10 L 841.80 813.20 L 840.70 810.90 L 840.50 808.70 L 840.90 801.80 L 844.80 765.10 L 844.80 764.30 L 843.30 762.10 L 837.00 754.40 Z" fill="#fda804" fill-rule="nonzero" group-id="7,27,38" id="路径_1312" node-id="83" stroke="none" target-height="75.69995" target-width="41.299988" target-x="837" target-y="738.4"></path><path d="M 744.20 554.60 L 741.90 570.30 L 740.80 588.00 L 740.80 598.40 L 741.30 610.50 L 742.00 618.70 L 744.70 636.60 L 746.60 645.70 L 749.00 655.10 L 752.00 664.90 L 755.60 674.40 L 759.50 683.60 L 763.80 692.40 L 768.50 701.00 L 778.40 716.60 L 788.80 730.60 L 801.40 745.20 L 808.10 751.80 L 814.50 757.60 L 819.30 761.30 L 822.60 763.40 L 825.70 764.50 L 831.40 762.70 L 835.20 760.90 L 844.30 755.50 L 848.90 751.90 L 854.60 746.40 L 857.00 743.30 L 859.20 740.00 L 861.00 736.50 L 862.30 732.80 L 859.50 731.10 L 852.00 725.60 L 841.70 717.30 L 830.20 707.10 L 824.40 701.50 L 819.00 695.90 L 814.10 690.10 L 810.00 684.60 L 805.90 677.30 L 804.70 674.10 L 801.50 662.50 L 797.40 646.10 L 776.60 556.40 Z" fill="#1c2d7d" fill-rule="nonzero" group-id="7,27,39" id="路径_1311" node-id="84" stroke="none" target-height="209.90002" target-width="121.5" target-x="740.8" target-y="554.6"></path><path d="M 774.80 366.40 L 786.60 369.40 L 780.60 386.70 L 774.80 392.40 L 774.80 412.40 L 776.20 414.00 L 766.60 434.80 L 755.70 432.90 L 753.20 410.20 L 755.70 407.70 L 755.70 390.20 Z" fill="#e6998c" fill-rule="nonzero" group-id="7,28,40" id="路径_1294" node-id="86" stroke="none" target-height="68.399994" target-width="33.399963" target-x="753.2" target-y="366.4"></path><path d="M 740.10 347.00 L 738.20 370.40 L 737.90 376.80 L 738.20 380.40 L 739.00 381.40 L 742.90 383.20 L 751.60 385.30 L 760.90 380.40 L 772.40 365.00 L 776.80 350.80 L 750.50 336.90 Z" fill="#feb2a5" fill-rule="nonzero" group-id="7,28,41" id="路径_1295" node-id="87" stroke="none" target-height="48.399994" target-width="38.899963" target-x="737.9" target-y="336.9"></path><path d="M 776.30 381.60 L 778.70 378.40 L 779.70 374.80 L 779.60 373.10 L 779.10 371.50 L 778.20 370.10 L 776.80 369.10 L 774.80 368.40 L 774.10 372.50 L 773.00 376.40 L 771.50 380.20 L 769.60 383.80 L 767.30 387.10 L 764.60 390.20 L 761.70 392.90 L 758.30 395.40 L 755.20 397.20 L 752.60 398.20 L 750.30 398.70 L 747.90 398.70 L 745.90 398.30 L 742.50 396.40 L 739.80 393.20 L 738.10 388.50 L 737.50 383.70 L 737.70 378.70 L 738.60 378.40 L 743.30 379.70 L 748.10 380.00 L 750.90 379.60 L 754.40 378.40 L 757.40 376.90 L 759.80 375.20 L 761.70 373.40 L 763.40 371.30 L 764.70 368.80 L 765.70 366.10 L 766.60 361.60 L 767.20 356.10 L 760.60 353.50 L 757.50 351.80 L 754.90 349.70 L 753.60 348.10 L 752.60 346.30 L 752.00 344.30 L 740.90 347.70 L 740.30 348.30 L 739.50 356.10 L 739.30 356.50 L 738.90 356.60 L 737.90 356.20 L 734.70 353.10 L 733.00 350.80 L 731.60 347.90 L 730.60 343.80 L 731.00 339.30 L 732.10 336.80 L 733.40 335.60 L 736.20 334.20 L 738.30 332.70 L 739.00 331.70 L 741.50 324.90 L 743.60 322.60 L 745.10 321.80 L 749.20 320.90 L 756.20 320.60 L 759.90 319.90 L 770.10 316.90 L 772.90 316.50 L 774.60 316.60 L 776.10 317.10 L 777.50 318.00 L 780.10 321.30 L 782.20 325.80 L 784.40 328.70 L 788.70 331.70 L 795.00 334.70 L 796.70 336.00 L 798.20 337.90 L 799.60 341.30 L 800.30 346.80 L 799.50 350.60 L 797.40 354.40 L 796.60 357.30 L 796.80 359.10 L 798.80 365.50 L 799.30 368.50 L 799.30 370.90 L 798.90 372.80 L 798.00 374.60 L 796.70 376.10 L 794.90 377.20 L 791.00 378.60 L 789.20 380.20 L 788.30 381.80 L 786.10 389.40 L 785.30 391.00 L 784.20 392.30 L 782.60 393.20 L 779.60 393.80 L 777.50 393.80 L 775.80 393.50 L 773.80 392.50 L 775.30 387.10 L 776.30 381.60 Z" fill="#036cfd" fill-rule="nonzero" group-id="7,28,42" id="路径_1296" node-id="88" stroke="none" target-height="82.20001" target-width="69.70001" target-x="730.6" target-y="316.5"></path><path d="M 757.30 558.20 L 749.30 559.10 L 741.70 559.30 L 733.90 558.50 L 729.30 557.00 L 725.50 554.40 L 723.50 551.60 L 722.80 549.40 L 722.80 547.60 L 723.20 545.80 L 724.50 543.40 L 746.40 543.40 L 768.60 548.90 Z" fill="#0359f8" fill-rule="nonzero" group-id="7,29,43" id="路径_1298" node-id="90" stroke="none" target-height="15.899963" target-width="45.799988" target-x="722.8" target-y="543.4"></path><path d="M 776.50 413.20 L 761.20 430.70 L 753.80 409.60 L 748.90 413.20 L 731.90 484.90 L 722.90 542.30 L 727.50 549.70 L 759.50 550.80 L 779.50 427.40 Z" fill="#ffffff" fill-rule="nonzero" group-id="7,29,44" id="路径_1297" node-id="91" stroke="none" target-height="141.19998" target-width="56.599976" target-x="722.9" target-y="409.6"></path><path d="M 629.10 503.60 L 620.20 502.60 L 612.60 502.30 L 605.80 502.90 L 592.20 505.70 L 588.20 506.00 L 584.60 505.70 L 582.30 505.20 L 580.30 504.30 L 578.70 503.10 L 577.10 500.60 L 576.60 498.80 L 576.50 496.60 L 576.80 493.70 L 577.40 491.20 L 578.40 489.20 L 579.80 487.30 L 583.20 484.40 L 586.30 482.80 L 589.60 481.70 L 593.10 481.00 L 596.40 480.70 L 602.40 480.70 L 605.80 481.20 L 614.50 483.20 L 627.00 487.30 L 632.20 489.80 L 632.90 490.60 L 633.30 491.70 L 633.40 493.10 L 633.00 495.30 L 632.10 497.70 L 629.10 503.60 Z" fill="#f9aaa0" fill-rule="nonzero" group-id="7,29,45" id="路径_1300" node-id="92" stroke="none" target-height="25.299988" target-width="56.900024" target-x="576.5" target-y="480.7"></path><path d="M 753.80 409.60 L 744.10 460.60 L 736.90 501.20 L 734.10 518.50 L 726.70 575.50 L 725.20 589.60 L 724.00 605.60 L 723.30 628.00 L 723.80 652.40 L 724.80 665.20 L 726.10 678.60 L 722.20 679.60 L 719.80 679.50 L 716.20 678.90 L 708.60 676.30 L 698.40 670.80 L 691.90 666.60 L 696.80 633.60 L 698.00 623.70 L 699.00 610.50 L 700.50 600.60 L 708.30 556.00 L 711.70 528.20 L 715.70 488.70 L 707.80 495.70 L 703.50 498.80 L 694.30 504.00 L 684.50 507.80 L 679.40 509.20 L 670.10 510.60 L 658.20 510.80 L 651.50 510.20 L 639.70 508.40 L 628.20 505.70 L 627.00 501.90 L 626.60 496.50 L 627.00 493.70 L 627.70 491.90 L 628.80 490.20 L 630.40 488.70 L 648.30 490.70 L 654.30 490.90 L 660.60 490.60 L 664.80 490.00 L 668.90 488.90 L 673.10 487.30 L 678.60 484.00 L 686.20 477.50 L 691.00 472.60 L 695.60 467.30 L 704.30 456.00 L 708.10 450.50 L 714.50 440.10 L 716.80 435.50 L 719.90 427.90 L 721.80 424.10 L 723.90 420.80 L 728.60 415.20 L 733.60 411.40 L 737.90 409.60 L 743.00 409.10 L 748.20 409.10 L 753.80 409.60 Z" fill="#4cb7ff" fill-rule="nonzero" group-id="7,29,46" id="路径_1299" node-id="93" stroke="none" target-height="270.49997" target-width="127.20001" target-x="626.6" target-y="409.1"></path><path d="M 737.40 438.30 L 689.00 431.60 L 706.30 503.40 L 754.30 511.60 Z" fill="#0540be" fill-rule="nonzero" group-id="7,29,47" id="路径_1301" node-id="94" stroke="#707070" stroke-linecap="butt" stroke-width="1" target-height="80" target-width="65.29999" target-x="689" target-y="431.6"></path><path d="M 754.30 488.60 L 747.70 480.10 L 744.20 476.60 L 741.00 474.70 L 736.30 473.90 L 734.10 474.00 L 732.20 474.50 L 731.30 475.20 L 730.60 476.30 L 730.10 477.90 L 729.60 483.40 L 729.90 486.10 L 730.70 488.80 L 733.00 491.80 L 741.20 497.20 L 744.50 498.90 L 747.80 500.10 L 750.00 500.50 L 752.10 500.60 L 754.30 500.20 L 755.60 499.50 L 756.50 498.70 L 756.90 497.60 L 757.00 495.70 L 756.60 493.70 L 754.30 488.60 Z" fill="#f9aaa0" fill-rule="nonzero" group-id="7,29,48" id="路径_1302" node-id="95" stroke="none" target-height="26.700012" target-width="27.400024" target-x="729.6" target-y="473.9"></path><path d="M 794.80 680.00 L 797.30 679.70 L 803.00 677.70 L 811.50 672.70 L 819.70 666.50 L 825.60 661.20 L 829.20 657.20 L 829.80 656.20 L 830.10 654.60 L 829.60 650.00 L 828.60 646.60 L 826.60 641.70 L 823.50 635.80 L 816.20 623.80 L 813.20 618.00 L 807.60 605.40 L 802.80 592.30 L 799.10 580.40 L 797.00 571.10 L 796.10 563.20 L 794.90 541.10 L 794.20 519.80 L 801.60 519.50 L 811.00 518.30 L 818.80 516.30 L 825.40 513.20 L 829.80 509.60 L 831.40 507.40 L 832.70 504.90 L 833.40 501.90 L 833.60 498.30 L 833.40 493.80 L 832.50 488.20 L 830.90 481.40 L 827.40 470.20 L 823.50 459.20 L 821.50 454.40 L 814.30 441.30 L 804.00 425.60 L 799.40 419.60 L 796.60 416.60 L 790.20 414.80 L 780.40 412.90 L 777.00 412.60 L 775.50 414.80 L 773.80 418.10 L 772.10 423.00 L 770.20 429.90 L 768.40 438.60 L 765.70 456.00 L 764.20 468.80 L 762.50 490.30 L 755.10 488.00 L 750.70 501.90 L 758.70 506.30 L 757.10 531.20 L 755.80 561.70 L 755.60 584.20 L 756.40 593.60 L 758.40 601.50 L 762.00 612.90 L 766.60 626.50 L 775.30 649.60 L 779.10 658.30 L 783.10 667.00 L 788.40 675.80 L 791.60 679.20 L 792.80 679.70 L 794.80 680.00 Z M 795.50 451.80 L 799.80 457.90 L 803.70 464.30 L 806.50 469.70 L 808.90 475.30 L 810.00 479.50 L 810.40 482.80 L 810.20 485.40 L 809.40 488.60 L 808.50 491.10 L 806.10 494.40 L 803.00 496.40 L 800.20 497.10 L 793.50 497.10 L 795.50 451.80 Z" fill="#4cb7ff" fill-rule="nonzero" group-id="7,29,49" id="减去_25" node-id="96" stroke="none" target-height="267.4" target-width="82.89996" target-x="750.7" target-y="412.6"></path><g clip-path="url(#clip-path)" group-id="7,29,50" id="蒙版组_5" node-id="97"><path d="M 792.70 434.10 L 796.10 456.30 L 795.30 497.50 L 786.20 495.50 Z" fill="#1792f8" fill-rule="nonzero" group-id="7,29,50,52" id="路径_1305" node-id="98" stroke="none" target-height="63.399994" target-width="9.899963" target-x="786.2" target-y="434.1"></path><path d="M 758.40 505.60 L 770.90 512.30 L 780.20 516.30 L 789.90 519.30 L 800.10 520.90 L 800.90 521.30 L 800.90 521.90 L 799.00 522.70 L 795.00 523.50 L 784.90 520.80 L 770.10 515.80 L 760.40 511.30 L 756.50 508.80 L 757.20 507.10 L 758.40 505.60 Z" fill="#1792f8" fill-rule="nonzero" group-id="7,29,50,53" id="路径_1306" node-id="99" stroke="none" target-height="17.899994" target-width="44.400024" target-x="756.5" target-y="505.6"></path></g></g></svg>